<svg xmlns="http://www.w3.org/2000/svg" viewBox="0 0 136.35 132.46"><defs><style>.cls-1{fill:#cee895;}.cls-2{fill:#93bc46;}</style></defs><title>Nav-icon</title><g id="icon1"><rect class="cls-1" x="16.97" y="16.61" width="102" height="102" rx="12"/><path class="cls-2" d="M119,75.05h-63V46.75a4.2,4.2,0,0,0-4.2-4.2H17v6.72H49.2V78.13a3.64,3.64,0,0,0,3.64,3.65H87v36.71h6.72V81.78H119Z"/><path class="cls-2" d="M110.41,58.45,101,50.84a17.38,17.38,0,1,0-3.53,4.55l9.27,7.53a2.88,2.88,0,1,0,3.63-4.47ZM85.8,54.81A12.09,12.09,0,1,1,97.89,42.72,12.09,12.09,0,0,1,85.8,54.81Z"/></g></svg>