<svg xmlns="http://www.w3.org/2000/svg" viewBox="0 0 136.35 132.46"><defs><style>.cls-1{fill:#b96666;}.cls-2{fill:#ffb7b7;}</style></defs><title>Nav-icon</title><g id="icon1"><path class="cls-1" d="M47.93,23.78l12,28.83H51.87l-10.8-26a3.72,3.72,0,1,1,6.86-2.86Z"/><path class="cls-1" d="M94.6,26.64l-10.81,26H75.74l12-28.83a3.72,3.72,0,1,1,6.86,2.86Z"/><path class="cls-2" d="M128.68,79.23A26.56,26.56,0,0,1,81.82,96.39h-28A26.57,26.57,0,1,1,33.56,52.65H51.62l0,0h8.06l0,0H75.44l0,0h8l0,0h18.62A26.57,26.57,0,0,1,128.68,79.23Z"/><path class="cls-1" d="M102.12,108.48a29.2,29.2,0,0,1-21.5-9.43H55.05A29.23,29.23,0,1,1,33.56,50l54.26,0,0,0h14.32a29.25,29.25,0,0,1,0,58.49ZM52.62,93.73H83.05l.8.94a23.91,23.91,0,1,0,18.27-39.36H79.2l0-.05-45.66.05A23.93,23.93,0,1,0,51.83,94.67Z"/><polygon class="cls-1" points="42.86 75.47 33.87 75.47 33.87 66.47 28.48 66.47 28.48 75.47 19.49 75.47 19.49 80.87 28.48 80.87 28.48 89.87 33.87 89.87 33.87 80.87 42.86 80.87 42.86 75.47"/><circle class="cls-1" cx="94.93" cy="72.85" r="4.25"/><circle class="cls-1" cx="108.74" cy="72.85" r="4.25"/><circle class="cls-1" cx="108.74" cy="84.55" r="4.25"/></g></svg>