<svg xmlns="http://www.w3.org/2000/svg" viewBox="0 0 136.35 132.46"><defs><style>.cls-1{fill:#4f4f4f;}</style></defs><title>Nav-icon</title><g id="icon1"><path class="cls-1" d="M102.2,50.73H87.58l0,0H84.88l9.79-23.52a3.73,3.73,0,1,0-6.88-2.87l-11,26.39-17.91,0-11-26.41A3.73,3.73,0,1,0,41,27.17l9.8,23.54-17.33,0A29.14,29.14,0,1,0,54.94,99.55H80.73A29.13,29.13,0,1,0,102.2,50.73Zm0,53.27a24.11,24.11,0,0,1-18.44-8.57L83,94.55H52.66l-.75.88a24.13,24.13,0,1,1-18.44-39.7l46.05,0,0,0h22.7a24.14,24.14,0,1,1,0,48.27Z"/><polygon class="cls-1" points="42.8 76.09 33.78 76.09 33.78 67.08 28.38 67.08 28.38 76.09 19.36 76.09 19.36 81.5 28.38 81.5 28.38 90.52 33.78 90.52 33.78 81.5 42.8 81.5 42.8 76.09"/><circle class="cls-1" cx="95" cy="73.47" r="4.26"/><circle class="cls-1" cx="108.85" cy="73.47" r="4.26"/><circle class="cls-1" cx="108.85" cy="85.19" r="4.26"/></g></svg>