<svg width="54" height="53" viewBox="0 0 54 53" fill="none" xmlns="http://www.w3.org/2000/svg">
<circle cx="26.7941" cy="26.7941" r="23.7941" fill="#FAFAFA"/>
<path d="M50.5881 26.7941C50.5881 20.4835 48.0813 14.4314 43.619 9.96912C39.1568 5.50687 33.1046 3 26.7941 3C20.4835 3 14.4314 5.50687 9.96912 9.96912C5.50687 14.4314 3 20.4835 3 26.7941L26.7941 26.7941H50.5881Z" fill="#FB5555"/>
<path fill-rule="evenodd" clip-rule="evenodd" d="M34.2611 24.3011H50.4591C50.5444 25.1205 50.5881 25.9522 50.5881 26.7941C50.5881 27.7915 50.5268 28.7746 50.4076 29.7398H34.261C33.1411 32.9082 30.1193 35.1782 26.5673 35.1782C23.0154 35.1782 19.9936 32.9082 18.8736 29.7398H3.18053C3.06137 28.7746 3 27.7915 3 26.7941C3 25.9522 3.04373 25.1205 3.12904 24.3011H18.8735C19.9934 21.1325 23.0152 18.8623 26.5673 18.8623C30.1194 18.8623 33.1413 21.1325 34.2611 24.3011Z" fill="#3C3C3C"/>
<circle cx="26.5674" cy="27.0205" r="4.5322" fill="white"/>
</svg>
