<svg xmlns="http://www.w3.org/2000/svg" viewBox="0 0 136.35 132.46"><defs><style>.cls-1{fill:#4f4f4f;}</style></defs><title>Nav-icon</title><g id="icon1"><path class="cls-1" d="M104.49,16.11h-73A14.51,14.51,0,0,0,17,30.6v73a14.5,14.5,0,0,0,14.49,14.48h73A14.5,14.5,0,0,0,119,103.63v-73A14.5,14.5,0,0,0,104.49,16.11Zm-73,5h73A9.5,9.5,0,0,1,114,30.6V74.19H56.51V47.27a4,4,0,0,0-4-4H22V30.6A9.49,9.49,0,0,1,31.46,21.11ZM22,103.63v-54H50.12V77.12a3.46,3.46,0,0,0,3.46,3.46H86.09v32.54H31.46A9.5,9.5,0,0,1,22,103.63Zm82.52,9.49h-12V80.58H114v23A9.5,9.5,0,0,1,104.49,113.12Z"/><path class="cls-1" d="M84.93,59.86a16.37,16.37,0,0,0,11.13-4.37l8.82,7.16a2.74,2.74,0,1,0,3.45-4.25l-8.91-7.24a16.42,16.42,0,1,0-14.49,8.7Zm0-27.92a11.5,11.5,0,1,1-11.5,11.5A11.49,11.49,0,0,1,84.93,31.94Z"/></g></svg>